<svg width="1200" height="760" viewBox="0 0 1200 760" fill="none" xmlns="http://www.w3.org/2000/svg">
  <defs>
    <linearGradient id="bg" x1="0" y1="0" x2="1200" y2="760" gradientUnits="userSpaceOnUse">
      <stop stop-color="#130E0C"/>
      <stop offset="1" stop-color="#0A0807"/>
    </linearGradient>
    <radialGradient id="glow" cx="0" cy="0" r="1" gradientUnits="userSpaceOnUse" gradientTransform="translate(920 180) rotate(90) scale(320 460)">
      <stop stop-color="#FFB996" stop-opacity="0.45"/>
      <stop offset="1" stop-color="#FFB996" stop-opacity="0"/>
    </radialGradient>
  </defs>
  <rect width="1200" height="760" fill="url(#bg)"/>
  <rect width="1200" height="760" fill="url(#glow)"/>
  <rect x="170" y="120" width="860" height="520" rx="24" fill="#15110F" stroke="#FFE0CF" stroke-opacity="0.16"/>
  <rect x="220" y="170" width="360" height="420" rx="16" fill="#1D1512"/>
  <rect x="620" y="170" width="360" height="130" rx="16" fill="#1D1512"/>
  <rect x="620" y="320" width="170" height="270" rx="16" fill="#1D1512"/>
  <rect x="810" y="320" width="170" height="270" rx="16" fill="#1D1512"/>
  <rect x="260" y="210" width="280" height="24" rx="8" fill="#2A1D17"/>
  <rect x="260" y="250" width="210" height="20" rx="8" fill="#2A1D17"/>
  <rect x="650" y="204" width="300" height="18" rx="8" fill="#2A1D17"/>
  <rect x="650" y="234" width="220" height="18" rx="8" fill="#2A1D17"/>
  <rect x="250" y="500" width="300" height="60" rx="12" fill="#E85018" fill-opacity="0.2"/>
  <path d="M690 450H730V560H690V450Z" fill="#E85018" fill-opacity="0.38"/>
  <path d="M880 390H920V560H880V390Z" fill="#E85018" fill-opacity="0.3"/>
  <path d="M980 660H220" stroke="#FFB089" stroke-opacity="0.24" stroke-width="3"/>
</svg>
